<svg width="81" height="88" viewBox="0 0 81 88" fill="none" xmlns="http://www.w3.org/2000/svg">
<g filter="url(#filter0_d_297_683)">
<rect x="4.54584" y="3.10156" width="63.6661" height="73.653" rx="5" transform="rotate(-2.79209 4.54584 3.10156)" fill="#986F2B"/>
<rect x="8.29092" y="6.49219" width="63.6661" height="73.653" rx="5" transform="rotate(-3.5984 8.29092 6.49219)" fill="#FAFAFA"/>
<path d="M24.4941 21.75L25.0569 21.7138C26.5179 21.62 27.1154 20.812 27.0131 19.2193L27.0069 19.1235C26.9023 17.4948 26.211 16.8418 24.7261 16.9372L24.1872 16.9718L24.4941 21.75ZM22.1487 23.8005L21.5987 15.2382L24.7123 15.0382C27.754 14.8428 29.3965 16.2644 29.5673 18.9229L29.5735 19.0187C29.745 21.6892 28.2681 23.4074 25.2503 23.6013L22.1487 23.8005ZM33.9317 23.1879C31.9677 23.3141 30.4568 22.2568 30.3253 20.209L30.3191 20.1132C30.1899 18.1013 31.6053 16.7358 33.4974 16.6143C35.2098 16.5043 36.7459 17.3916 36.8905 19.643L36.9267 20.2058L32.5197 20.4889C32.6327 21.3114 33.1425 21.7596 33.9089 21.7104C34.6154 21.665 34.8941 21.3224 34.951 20.8979L36.9628 20.7687C36.862 22.1941 35.8238 23.0664 33.9317 23.1879ZM32.466 19.2779L34.7653 19.1302C34.6809 18.378 34.2827 17.9827 33.5881 18.0273C32.9415 18.0689 32.5253 18.5165 32.466 19.2779ZM40.981 22.7351C39.1129 22.8551 37.6178 21.8569 37.4824 19.7493L37.4763 19.6535C37.3424 17.5697 38.7624 16.2761 40.6066 16.1576C42.1394 16.0591 43.5956 16.639 43.8377 18.5354L41.8258 18.6646C41.6923 18.084 41.3841 17.7791 40.7614 17.8191C40.007 17.8675 39.5985 18.4349 39.6662 19.4887L39.6724 19.5845C39.7424 20.6743 40.1976 21.2102 41.012 21.1579C41.6107 21.1194 42.0068 20.7332 42.0348 20.046L43.9628 19.9222C44.0045 21.5068 43.0048 22.6051 40.981 22.7351Z" fill="#474747"/>
<path d="M32.4316 59.0564L31.3307 44.7347L27.7142 47.3716L27.3472 42.5977L31.6789 39.0352L36.6203 38.6554L38.1547 58.6165L32.4316 59.0564ZM48.9063 58.127C43.6019 58.5348 40.98 55.8438 40.5528 52.1136L45.7455 51.7144C46.0482 53.0953 46.6774 53.9736 48.52 53.832C50.1671 53.7054 50.8265 52.4191 50.7042 50.8278C50.5668 49.041 49.5081 48.0553 47.7773 48.1883C46.158 48.3128 45.2024 49.0322 44.5924 49.8653L41.1865 50.1272L40.7018 38.3416L54.1581 37.3073L54.48 41.4949L45.1555 42.2117L45.3829 46.6313C46.053 45.4845 47.3974 44.3421 49.882 44.1511C53.5392 43.87 56.129 46.1422 56.4616 50.4695C56.7878 54.7129 53.9594 57.7386 48.9063 58.127Z" fill="#474747"/>
</g>
<defs>
<filter id="filter0_d_297_683" x="0.783356" y="0.237305" width="79.3671" height="87.459" filterUnits="userSpaceOnUse" color-interpolation-filters="sRGB">
<feFlood flood-opacity="0" result="BackgroundImageFix"/>
<feColorMatrix in="SourceAlpha" type="matrix" values="0 0 0 0 0 0 0 0 0 0 0 0 0 0 0 0 0 0 127 0" result="hardAlpha"/>
<feOffset dy="4"/>
<feGaussianBlur stdDeviation="2"/>
<feComposite in2="hardAlpha" operator="out"/>
<feColorMatrix type="matrix" values="0 0 0 0 0 0 0 0 0 0 0 0 0 0 0 0 0 0 0.25 0"/>
<feBlend mode="normal" in2="BackgroundImageFix" result="effect1_dropShadow_297_683"/>
<feBlend mode="normal" in="SourceGraphic" in2="effect1_dropShadow_297_683" result="shape"/>
</filter>
</defs>
</svg>
