<svg width="80" height="88" viewBox="0 0 80 88" fill="none" xmlns="http://www.w3.org/2000/svg">
<g filter="url(#filter0_d_116_350)">
<rect x="4" y="3.10156" width="63.6661" height="73.653" rx="5" transform="rotate(-2.79209 4 3.10156)" fill="#AC8E5D"/>
<rect x="7.74512" y="6.49219" width="63.6661" height="73.653" rx="5" transform="rotate(-3.5984 7.74512 6.49219)" fill="#FAFAFA"/>
<path d="M22.3847 23.8585C21.5823 23.9101 21.1675 23.8165 20.8094 23.6711L20.6917 21.8389C20.9853 21.9162 21.2534 21.9712 21.7444 21.9396C22.415 21.8966 22.8388 21.5687 22.7819 20.6825L22.4265 15.1499L24.8934 14.9915L25.2504 20.548C25.3827 22.6078 24.3965 23.7293 22.3847 23.8585ZM26.0663 23.5138L28.2586 14.7753L31.432 14.5715L34.7005 22.9592L32.1018 23.1261L31.5444 21.5626L28.7063 21.745L28.3535 23.3669L26.0663 23.5138ZM29.8113 16.6717L29.0768 20.0257L30.957 19.9049L29.8113 16.6717ZM35.6833 22.8961L35.1333 14.3337L37.8996 14.156L40.9519 18.8059L40.6419 13.9799L42.7855 13.8422L43.3355 22.4045L40.9644 22.5568L37.4934 17.3807L37.8388 22.7576L35.6833 22.8961Z" fill="#474747"/>
<path d="M35.7361 54.6318C38.1929 54.443 39.0305 52.5532 38.7472 48.8681L38.685 48.0585C38.4039 44.4013 37.2014 42.6402 34.7725 42.8269C32.3716 43.0115 31.4223 44.9098 31.7056 48.595L31.77 49.4325C32.0554 53.1455 33.2794 54.8207 35.7361 54.6318ZM35.9098 59.0836C30.3263 59.5128 26.5318 56.1818 26.049 49.9003L25.9846 49.0628C25.4996 42.7534 29.1635 38.9053 34.4399 38.4997C39.6884 38.0963 43.9038 41.0579 44.4017 47.5348L44.4618 48.3165C44.9489 54.6538 41.605 58.6458 35.9098 59.0836ZM50.9155 57.5931L49.8146 43.2714L46.1981 45.9083L45.8312 41.1344L50.1629 37.5719L55.1043 37.1921L56.6386 57.1532L50.9155 57.5931Z" fill="#474747"/>
</g>
<defs>
<filter id="filter0_d_116_350" x="0.237549" y="0.237793" width="79.3671" height="87.4585" filterUnits="userSpaceOnUse" color-interpolation-filters="sRGB">
<feFlood flood-opacity="0" result="BackgroundImageFix"/>
<feColorMatrix in="SourceAlpha" type="matrix" values="0 0 0 0 0 0 0 0 0 0 0 0 0 0 0 0 0 0 127 0" result="hardAlpha"/>
<feOffset dy="4"/>
<feGaussianBlur stdDeviation="2"/>
<feComposite in2="hardAlpha" operator="out"/>
<feColorMatrix type="matrix" values="0 0 0 0 0 0 0 0 0 0 0 0 0 0 0 0 0 0 0.25 0"/>
<feBlend mode="normal" in2="BackgroundImageFix" result="effect1_dropShadow_116_350"/>
<feBlend mode="normal" in="SourceGraphic" in2="effect1_dropShadow_116_350" result="shape"/>
</filter>
</defs>
</svg>
