<svg width="50" height="80" viewBox="0 0 50 80" fill="none" xmlns="http://www.w3.org/2000/svg">
<path fill-rule="evenodd" clip-rule="evenodd" d="M49.1235 1.50103L40.1997 3.77062L49.63 2.31741C49.8674 2.82888 50 3.39896 50 4V36C50 37.285 49.3941 38.4285 48.4523 39.1603L31 40L48.4523 40.8397C49.3941 41.5715 50 42.715 50 44V76C50 78.2091 48.2091 80 46 80H4C1.79086 80 0 78.2091 0 76V44C0 42.715 0.605945 41.5715 1.54769 40.8397L19 40L1.54769 39.1603C0.605944 38.4285 0 37.285 0 36V4C0 1.79086 1.79086 0 4 0H46C47.2637 0 48.3905 0.585976 49.1235 1.50103Z" fill="#D9D9D9"/>
</svg>
