<svg width="12" height="12" viewBox="0 0 12 12" fill="none" xmlns="http://www.w3.org/2000/svg">
<path fill-rule="evenodd" clip-rule="evenodd" d="M4.36368 0H7.6364V4.00012H8.80062C9.74778 4.00012 10.1642 5.19443 9.42237 5.78333L6.62186 8.00654C6.25775 8.29559 5.74246 8.29559 5.37835 8.00654L2.57783 5.78333C1.83601 5.19443 2.25243 4.00012 3.19959 4.00012H4.36368V0ZM1 9.49988C0.447715 9.49988 0 9.94759 0 10.4999V10.9999C0 11.5522 0.447715 11.9999 1 11.9999H11C11.5523 11.9999 12 11.5522 12 10.9999V10.4999C12 9.94759 11.5523 9.49988 11 9.49988H1Z" fill="white"/>
</svg>
