<svg width="33" height="33" viewBox="0 0 33 33" fill="none" xmlns="http://www.w3.org/2000/svg">
<path fill-rule="evenodd" clip-rule="evenodd" d="M32 0H23C22.4477 0 22 0.447716 22 1C22 1.55228 22.4477 2 23 2H29.5858L15.2929 16.2929L16.7071 17.7071L31 3.41421V10C31 10.5523 31.4477 11 32 11C32.5523 11 33 10.5523 33 10V1C33 0.447716 32.5523 0 32 0ZM7 3H16V1H7C3.13401 1 0 4.13401 0 8V26C0 29.866 3.13401 33 7 33H25C28.866 33 32 29.866 32 26V17H30V26C30 28.7614 27.7614 31 25 31H7C4.23858 31 2 28.7614 2 26V8C2 5.23858 4.23858 3 7 3Z" fill="#38bdf8"/>
</svg>
